<?xml version="1.0" encoding="UTF-8" standalone="no"?>
<!-- Created with Inkscape (http://www.inkscape.org/) -->

<svg
   xmlns:dc="http://purl.org/dc/elements/1.1/"
   xmlns:cc="http://creativecommons.org/ns#"
   xmlns:rdf="http://www.w3.org/1999/02/22-rdf-syntax-ns#"
   xmlns:svg="http://www.w3.org/2000/svg"
   xmlns="http://www.w3.org/2000/svg"
   xmlns:sodipodi="http://sodipodi.sourceforge.net/DTD/sodipodi-0.dtd"
   xmlns:inkscape="http://www.inkscape.org/namespaces/inkscape"
   width="69.351257mm"
   height="29.515619mm"
   viewBox="0 0 69.351259 29.515619"
   id="svg2"
   version="1.1"
   inkscape:version="0.92.2 5c3e80d, 2017-08-06"
   sodipodi:docname="cbc-logo.svg"
   inkscape:export-filename="/Users/tstephen/git/cbc/cbc-logo.png"
   inkscape:export-xdpi="453.793"
   inkscape:export-ydpi="453.793">
  <defs
     id="defs4" />
  <sodipodi:namedview
     id="base"
     pagecolor="#ffffff"
     bordercolor="#666666"
     borderopacity="1.0"
     inkscape:pageopacity="0.0"
     inkscape:pageshadow="2"
     inkscape:zoom="1"
     inkscape:cx="171.40124"
     inkscape:cy="122.17308"
     inkscape:document-units="mm"
     inkscape:current-layer="svg2"
     showgrid="false"
     inkscape:window-width="1276"
     inkscape:window-height="756"
     inkscape:window-x="4"
     inkscape:window-y="22"
     inkscape:window-maximized="1"
     fit-margin-top="0"
     fit-margin-left="0"
     fit-margin-right="0"
     fit-margin-bottom="0"
     inkscape:pagecheckerboard="true"
     objecttolerance="10"
     gridtolerance="10"
     guidetolerance="10" />
  <metadata
     id="metadata7">
    <rdf:RDF>
      <cc:Work
         rdf:about="">
        <dc:format>image/svg+xml</dc:format>
        <dc:type
           rdf:resource="http://purl.org/dc/dcmitype/StillImage" />
        <dc:title></dc:title>
      </cc:Work>
    </rdf:RDF>
  </metadata>
  <g
     inkscape:label="SVG logo"
     inkscape:groupmode="layer"
     id="layer1"
     style="display:inline;opacity:1"
     transform="translate(-93.642682,-44.024877)">
    <g
       style="font-style:normal;font-weight:normal;font-size:10.58333302px;line-height:125%;font-family:sans-serif;letter-spacing:0px;word-spacing:0px;fill:#0066bf;fill-opacity:1;stroke:none;stroke-width:0.26458332px;stroke-linecap:butt;stroke-linejoin:miter;stroke-opacity:1"
       aria-label="CBC"
       id="text4165"
       transform="translate(-0.56444445,-25.399987)">
      <path
         d="m 115.48059,94.056313 q -0.9474,0.413411 -1.72255,0.775146 -0.75792,0.361735 -1.99815,0.757921 -1.05076,0.327284 -2.29099,0.551215 -1.22301,0.241157 -2.7044,0.241157 -2.79053,0 -5.08152,-0.775146 -2.273759,-0.792372 -3.961856,-2.463244 -1.653646,-1.63642 -2.583822,-4.15134 -0.930176,-2.532145 -0.930176,-5.873888 0,-3.169488 0.895725,-5.667182 0.895725,-2.497694 2.583822,-4.220242 1.63642,-1.670872 3.944637,-2.549371 2.32544,-0.878499 5.15042,-0.878499 2.06705,0 4.11688,0.499539 2.06706,0.499538 4.58198,1.756998 v 4.047988 h -0.25838 q -2.11873,-1.774225 -4.20302,-2.583822 -2.08428,-0.809598 -4.4614,-0.809598 -1.94648,0 -3.51399,0.637343 -1.5503,0.620117 -2.77331,1.946479 -1.188554,1.291911 -1.860347,3.272841 -0.654568,1.963704 -0.654568,4.547526 0,2.7044 0.72347,4.650879 0.740695,1.946479 1.894805,3.169488 1.20578,1.274685 2.80775,1.894803 1.6192,0.602891 3.41064,0.602891 2.46325,0 4.61643,-0.844048 2.15319,-0.844049 4.03076,-2.532145 h 0.24116 z"
         style="font-style:normal;font-variant:normal;font-weight:normal;font-stretch:normal;font-size:35.27777863px;line-height:125%;font-family:'X360 by Redge';-inkscape-font-specification:'X360 by Redge, Normal';text-align:start;writing-mode:lr-tb;text-anchor:start;fill:#0066bf;fill-opacity:1;stroke-width:0.26458332px"
         id="path4208"
         inkscape:connector-curvature="0" />
      <path
         style="font-style:normal;font-variant:normal;font-weight:normal;font-stretch:normal;font-size:35.27777863px;line-height:125%;font-family:'X360 by Redge';-inkscape-font-specification:'X360 by Redge, Normal';text-align:start;writing-mode:lr-tb;text-anchor:start;fill:#0066bf;fill-opacity:1;stroke-width:0.26458332px"
         d="m 124.32794,92.884578 3.59987,-0.02936 c 1.49283,-0.01217 2.58225,0.02559 3.53539,-0.123705 0.95315,-0.160771 1.6004,-0.447862 2.20903,-0.861274 1.34462,-0.908313 2.11886,-2.302782 2.12762,-3.688336 0,-1.033528 -0.15503,-1.854609 -0.46509,-2.463243 -0.31006,-0.608634 -0.87276,-1.125398 -1.6881,-1.550293 -0.55121,-0.287091 -1.223,-0.47083 -2.01538,-0.551216 l -2.82992,-0.282565 1.53081,-2.833975 c 1.79799,-0.0036 3.32643,-2.069759 3.24044,-3.709299 -0.12502,-2.383787 -2.46383,-3.406094 -3.23324,-3.474996 -0.7694,-0.08039 -1.72254,-0.122914 -2.85943,-0.120579 l -2.03793,0.06682 -5.40965,-0.03163 -0.0284,-2.946291 7.59643,-4e-6 c 1.87184,-10e-7 3.27284,0.0689 4.20302,0.206705 0.93018,0.137804 1.82016,0.424896 2.66995,0.861274 0.94166,0.493798 1.62494,1.13114 2.04983,1.912028 0.4249,0.769405 0.63734,1.693839 0.63734,2.773302 0,1.217268 -0.31005,2.256538 -0.93017,3.117812 -1.76529,1.51974 -2.12853,1.887334 -3.00278,2.150798 0,0 2.61817,-0.111742 4.62197,2.327826 0.99908,1.159849 1.49862,2.629756 1.49862,4.409722 0,1.274686 -0.24115,2.400084 -0.72347,3.376194 -0.48231,0.976111 -1.13114,1.779967 -1.94648,2.411567 -0.96462,0.757921 -2.02686,1.297653 -3.18672,1.619195 -1.14836,0.321542 -2.61254,0.491082 -4.39249,0.482313 l -4.79544,-0.02362"
         id="path4229"
         inkscape:connector-curvature="0"
         sodipodi:nodetypes="cscccsccccscccccssccscccssccsc" />
      <path
         d="m 163.55838,93.678337 c -0.6316,0.275607 -1.20579,0.533989 -1.72255,0.775146 -0.50528,0.241156 -1.17133,0.493797 -1.99815,0.757921 -0.70051,0.218189 -1.46417,0.401927 -2.29099,0.551215 -0.81534,0.160771 -1.71681,0.241157 -2.7044,0.241157 -1.86036,0 -3.5542,-0.258382 -5.08152,-0.775146 -1.51584,-0.528248 -2.83646,-1.34933 -3.96186,-2.463244 -1.10243,-1.090947 -1.9637,-2.474727 -2.58382,-4.15134 -0.62012,-1.688097 -0.93018,-3.64606 -0.93018,-5.873888 0,-2.112992 0.29857,-4.002053 0.89573,-5.667182 0.59714,-1.66513 1.45842,-3.071877 2.58382,-4.220242 1.09094,-1.113915 2.40582,-1.963705 3.94464,-2.549371 1.55029,-0.585666 3.26709,-0.878499 5.15041,-0.878499 1.37804,0 2.75033,0.166513 4.11689,0.499539 1.37804,0.333025 2.90536,0.918691 4.58198,1.756998 v 4.047988 H 163.3 c -1.4125,-1.182817 -2.8135,-2.044091 -4.20302,-2.583822 -1.38952,-0.539732 -2.87666,-0.809598 -4.4614,-0.809598 -1.29766,0 -2.46899,0.212447 -3.51399,0.637343 -1.03354,0.413411 -1.95797,1.062237 -2.77331,1.946479 -0.79237,0.861274 -1.41249,1.952221 -1.86035,3.272841 -0.43638,1.309136 -0.65457,2.824978 -0.65457,4.547526 0,1.802933 0.24115,3.353226 0.72347,4.650879 0.4938,1.297652 1.1254,2.354148 1.89481,3.169488 0.80385,0.84979 1.73977,1.481391 2.80775,1.894803 1.07946,0.401927 2.21634,0.602891 3.41064,0.602891 1.64216,0 3.18097,-0.28135 4.61643,-0.844048 1.43546,-0.5627 2.77904,-1.406748 4.03076,-2.532145 h 0.24116 z"
         style="font-style:normal;font-variant:normal;font-weight:normal;font-stretch:normal;font-size:35.27777863px;line-height:125%;font-family:'X360 by Redge';-inkscape-font-specification:'X360 by Redge, Normal';text-align:start;writing-mode:lr-tb;text-anchor:start;fill:#0066bf;fill-opacity:1;stroke-width:0.26458332px"
         id="path4212"
         inkscape:connector-curvature="0"
         sodipodi:nodetypes="ccccscccssccsccccsscccscccssccc" />
    </g>
    <path
       id="rect4202"
       style="opacity:0.98000004;fill:#6c6c6b;fill-opacity:1;stroke-width:0.19154231"
       d="m 128.85019,55.106536 -1.78638,2.88395 h -13.06067 l 1.78638,-2.88395 z m -9.4072,-6.417977 h 3.40179 v 24.851937 h -3.40179 z"
       inkscape:connector-curvature="0" />
  </g>
</svg>
